#!OML:ASF E:\VariousWalksJay\Project 1\Capture day 1\Session 1\Actor2.ASF
:FULLY-SPECIFIED
:DEGREES
958
root -6.05613 16.7575 26.4044 19.6331 -37.1547 -8.41969
lowerback 12.6791 -2.65645 5.22705
upperback 13.9891 -3.48732 -1.64773
thorax 7.51983 -1.35682 -4.48198
lowerneck 0.261087 1.00198 0.505529
upperneck 0.0952252 1.32319 4.24783
head -0.0407409 0.652341 1.21437
rclavicle -4.77083e-015 -1.98785e-014
rhumerus -36.637 15.2496 -91.4878
rradius 63.3039
rwrist 4.49267
rhand -28.8081 -7.25005
rfingers 7.12502
rthumb -2.16636 -37.2188
lclavicle -4.77083e-015 -1.98785e-014
lhumerus 6.63607 -33.4959 74.8534
lradius 61.6999
lwrist 55.0754
lhand -36.38 8.61424
lfingers 7.12502
lthumb -9.47647 38.3812
rfemur -11.422 1.80924 25.735
rtibia 42.8629
rfoot -18.5326 -16.1389
rtoes -16.3856
lfemur -46.157 12.8956 -23.0598
ltibia 30.6613
lfoot -3.88108 7.85304
ltoes -3.81217
959
root -6.07438 16.7776 26.4987 19.8712 -37.2466 -8.50375
lowerback 12.6896 -2.58656 5.23904
upperback 13.9386 -3.39319 -1.61062
thorax 7.46855 -1.31302 -4.45318
lowerneck 0.227092 0.953972 0.46204
upperneck 0.128218 1.25734 4.25075
head -0.0240154 0.620489 1.22309
rclavicle -3.02153e-014 -4.77083e-015
rhumerus -36.6485 15.1643 -91.4236
rradius 63.2272
rwrist 4.51285
rhand -28.8059 -7.25042
rfingers 7.12502
rthumb -2.16427 -37.2192
lclavicle -3.02153e-014 -4.77083e-015
lhumerus 6.33101 -33.7487 75.1712
lradius 61.8989
lwrist 55.1198
lhand -36.3803 8.55471
lfingers 7.12502
lthumb -9.47675 38.3216
rfemur -11.9482 1.77021 25.491
rtibia 43.7246
rfoot -17.1839 -15.5754
rtoes -16.7151
lfemur -46.0522 12.9395 -23.125
ltibia 30.749
lfoot -4.25299 7.8495
ltoes -3.50136
960
root -6.09113 16.7958 26.5908 20.0948 -37.3468 -8.57682
lowerback 12.7372 -2.52074 5.23073
upperback 13.8876 -3.30388 -1.57406
thorax 7.39639 -1.27424 -4.41157
lowerneck 0.18225 0.912314 0.420329
upperneck 0.152904 1.20017 4.24627
head -0.0081138 0.592983 1.22919
rclavicle 1.74931e-014 -6.59965e-014
rhumerus -36.6786 15.0965 -91.3553
rradius 63.1989
rwrist 4.53281
rhand -28.808 -7.25336
rfingers 7.12502
rthumb -2.1663 -37.2221
lclavicle 1.74931e-014 -6.59965e-014
lhumerus 6.0043 -33.9854 75.4883
lradius 62.1545
lwrist 55.2033
lhand -36.3741 8.50134
lfingers 7.12502
lthumb -9.47079 38.2685
rfemur -12.6039 1.73077 25.2346
rtibia 44.802
rfoot -15.7685 -15.0024
rtoes -16.8264
lfemur -45.944 12.9925 -23.2075
ltibia 30.8291
lfoot -4.65677 7.85017
ltoes -3.2244
961
root -6.10652 16.8121 26.6804 20.3111 -37.4688 -8.63507
lowerback 12.8185 -2.45665 5.17955
upperback 13.8314 -3.21789 -1.5356
thorax 7.30057 -1.24192 -4.34207
lowerneck 0.127026 0.882104 0.372461
upperneck 0.17389 1.15833 4.23901
head 0.00806656 0.573186 1.23547
rclavicle 2.14687e-014 -1.11319e-014
rhumerus -36.7221 15.0663 -91.2803
rradius 63.208
rwrist 4.55356
rhand -28.8157 -7.24788
rfingers 7.12502
rthumb -2.17369 -37.2165
lclavicle 2.14687e-014 -1.11319e-014
lhumerus 5.65039 -34.2006 75.8078
lradius 62.4619
lwrist 55.2974
lhand -36.3779 8.46382
lfingers 7.12502
lthumb -9.47441 38.2308
rfemur -13.4054 1.70802 24.9609
rtibia 46.0985
rfoot -14.2915 -14.4331
rtoes -16.6735
lfemur -45.8486 13.0687 -23.3195
ltibia 30.9095
lfoot -5.09333 7.84863
ltoes -3.00857
962
root -6.12035 16.8262 26.7677 20.5138 -37.6134 -8.67365
lowerback 12.931 -2.39204 5.09382
upperback 13.7719 -3.13197 -1.5006
thorax 7.18441 -1.21314 -4.25567
lowerneck 0.0709573 0.861223 0.324883
upperneck 0.188693 1.12924 4.22822
head 0.0222755 0.55966 1.24055
rclavicle 1.43125e-014 4.69132e-014
rhumerus -36.7769 15.0677 -91.2007
rradius 63.2544
rwrist 4.57564
rhand -28.8278 -7.23266
rfingers 7.12502
rthumb -2.18536 -37.2012
lclavicle 1.43125e-014 4.69132e-014
lhumerus 5.28095 -34.4073 76.1205
lradius 62.818
lwrist 55.3955
lhand -36.4018 8.40061
lfingers 7.12502
lthumb -9.49753 38.1666
rfemur -14.3506 1.70422 24.6669
rtibia 47.6135
rfoot -12.7421 -13.895
rtoes -16.2924
lfemur -45.7679 13.1749 -23.469
ltibia 30.9987
lfoot -5.55843 7.83558
ltoes -2.85183
963
root -6.13265 16.8376 26.8522 20.6967 -37.7739 -8.68809
lowerback 13.077 -2.33042 4.96983
upperback 13.7109 -3.05122 -1.46881
thorax 7.04854 -1.19061 -4.14971
lowerneck 0.0149764 0.851853 0.273127
upperneck 0.201315 1.11567 4.21709
head 0.0354702 0.553832 1.24622
rclavicle 6.91771e-014 -9.54166e-015
rhumerus -36.833 15.1068 -91.1156
rradius 63.3281
rwrist 4.60085
rhand -28.8435 -7.20089
rfingers 7.12502
rthumb -2.20061 -37.1693
lclavicle 6.91771e-014 -9.54166e-015
lhumerus 4.90646 -34.6144 76.4128
lradius 63.2151
lwrist 55.4785
lhand -36.4541 8.3315
lfingers 7.12502
lthumb -9.54792 38.0952
rfemur -15.4403 1.72469 24.3562
rtibia 49.3456
rfoot -11.1301 -13.4084
rtoes -15.5888
lfemur -45.7105 13.3161 -23.662
ltibia 31.1088
lfoot -6.04 7.79287
ltoes -2.75692
